<?xml version="1.0" standalone="no"?>
<!DOCTYPE svg PUBLIC "-//W3C//DTD SVG 20010904//EN"
 "http://www.w3.org/TR/2001/REC-SVG-20010904/DTD/svg10.dtd">
<svg version="1.0" xmlns="http://www.w3.org/2000/svg"
 width="150.000000pt" height="150.000000pt" viewBox="0 0 150.000000 150.000000"
 preserveAspectRatio="xMidYMid meet">
<metadata>
Created by potrace 1.16, written by Peter Selinger 2001-2019
</metadata>
<g transform="translate(0.000000,150.000000) scale(0.100000,-0.100000)"
fill="#000000" stroke="none">
<path d="M0 750 l0 -750 750 0 750 0 0 750 0 750 -750 0 -750 0 0 -750z m955
700 c249 -78 437 -273 502 -520 23 -90 23 -273 0 -360 -68 -251 -254 -443
-507 -522 -108 -33 -292 -33 -400 0 -253 80 -440 272 -507 522 -23 87 -23 270
0 360 72 275 303 489 585 540 80 15 249 4 327 -20z"/>
<path d="M1055 1213 c-27 -18 -59 -39 -70 -47 -19 -13 -19 -14 6 -9 25 5 27 1
39 -46 l12 -51 21 32 c37 53 54 58 83 23 l24 -30 -30 -3 c-17 -2 -34 -12 -40
-23 -13 -24 -1 -49 12 -25 14 25 36 19 58 -16 l20 -33 0 46 c0 35 -7 56 -29
87 -17 22 -36 60 -43 84 l-13 43 -50 -32z"/>
<path d="M314 1095 c-13 -9 -23 -29 -27 -55 -3 -25 -17 -53 -36 -75 -40 -46
-47 -75 -31 -142 12 -47 11 -56 -1 -64 -20 -13 -31 -7 -56 31 -18 25 -24 29
-29 17 -15 -40 60 -107 89 -78 23 23 34 10 40 -49 4 -32 13 -74 21 -92 17 -38
21 -13 5 29 -10 28 -33 243 -25 250 4 4 44 -18 89 -50 35 -25 106 -35 118 -16
7 11 18 9 61 -14 46 -24 58 -26 88 -17 53 16 55 -2 5 -61 -92 -109 -147 -137
-243 -126 -32 3 -41 2 -29 -5 41 -22 7 -59 -35 -38 -22 12 -22 11 -6 -5 28
-30 102 -23 189 18 61 29 91 53 157 122 45 47 86 85 91 85 16 0 41 -42 41 -69
0 -14 -16 -41 -40 -67 -45 -49 -54 -98 -22 -127 30 -27 112 -20 112 8 0 9 -11
13 -30 13 -16 -1 -36 5 -45 12 -25 21 -19 75 14 112 15 18 33 43 40 56 12 23
13 22 58 -28 91 -101 198 -134 270 -82 44 31 70 115 53 168 -10 31 -10 39 4
52 15 15 16 13 16 -20 0 -30 5 -37 29 -47 15 -7 50 -11 77 -9 40 2 50 7 52 23
3 18 -3 20 -58 20 -69 0 -84 12 -73 60 11 43 6 96 -9 110 -19 18 -85 28 -93
15 -4 -6 -1 -11 6 -9 30 4 39 -2 39 -24 0 -33 -18 -49 -42 -36 -11 6 -17 17
-14 25 3 8 1 14 -4 14 -15 0 -12 -37 5 -54 28 -27 14 -76 -21 -76 -2 0 -22 37
-44 83 -44 90 -60 107 -101 107 -38 0 -58 -9 -70 -32 -9 -17 -8 -18 8 -10 10
5 35 12 56 15 36 6 39 4 53 -28 16 -38 19 -79 5 -71 -5 3 -8 -6 -8 -20 0 -33
-28 -62 -74 -76 -30 -8 -42 -8 -53 2 -22 17 -5 45 42 69 20 11 31 20 24 21 -7
0 -30 -9 -52 -20 -36 -18 -39 -19 -43 -2 -3 10 -5 6 -6 -10 -2 -46 -19 -31
-29 25 l-9 52 -13 -27 c-7 -16 -17 -28 -22 -28 -13 0 -9 28 5 33 18 6 11 116
-9 138 -10 11 -15 28 -12 44 5 22 2 25 -22 25 -16 0 -35 -10 -48 -25 l-22 -25
25 -36 c14 -20 25 -49 25 -63 -1 -26 -1 -26 -14 5 -26 59 -106 93 -174 74 -56
-15 -75 -41 -79 -108 -4 -60 -23 -99 -23 -47 0 22 -3 26 -9 16 -6 -8 -28 -16
-50 -17 l-41 -2 35 41 c45 52 60 106 45 153 -12 34 -34 53 -47 40 -4 -4 1 -20
10 -35 9 -16 17 -41 17 -56 0 -33 -38 -72 -78 -81 -15 -3 -33 -8 -40 -10 -24
-7 -9 50 16 61 23 10 30 25 11 25 -7 0 -8 7 -4 18 4 9 7 25 7 34 0 10 11 27
25 38 29 23 18 28 -13 5z m332 -123 c19 -12 44 -70 44 -102 l0 -31 -31 36
c-17 19 -36 35 -42 35 -6 0 1 -12 15 -27 42 -44 63 -116 25 -84 -8 6 -36 14
-63 17 -60 8 -89 25 -109 64 -15 28 -14 30 4 30 14 0 18 5 14 19 -3 14 3 24
24 35 29 16 100 21 119 8z m534 -222 c19 -26 19 -28 1 -46 -9 -11 -16 -25 -13
-32 2 -7 -6 -12 -19 -12 -21 0 -21 -1 -5 -13 22 -16 13 -41 -20 -56 -52 -23
-98 -9 -179 53 -65 50 -66 60 -13 70 18 4 48 19 67 35 30 25 43 28 98 28 58
-1 66 -3 83 -27z"/>
</g>
</svg>
